<?xml version="1.0" encoding="UTF-8" standalone="no"?>
<!-- Created with Inkscape (http://www.inkscape.org/) -->

<svg
   xmlns:dc="http://purl.org/dc/elements/1.1/"
   xmlns:cc="http://creativecommons.org/ns#"
   xmlns:rdf="http://www.w3.org/1999/02/22-rdf-syntax-ns#"
   xmlns:svg="http://www.w3.org/2000/svg"
   xmlns="http://www.w3.org/2000/svg"
   xmlns:sodipodi="http://sodipodi.sourceforge.net/DTD/sodipodi-0.dtd"
   xmlns:inkscape="http://www.inkscape.org/namespaces/inkscape"
   width="1268.4717"
   height="256.9711"
   id="svg3514"
   version="1.1"
   inkscape:version="0.47 r22583"
   sodipodi:docname="New document 2">
  <title
     id="title3563">RAM memory</title>
  <defs
     id="defs3516">
    <inkscape:perspective
       sodipodi:type="inkscape:persp3d"
       inkscape:vp_x="0 : 526.18109 : 1"
       inkscape:vp_y="0 : 1000 : 0"
       inkscape:vp_z="744.09448 : 526.18109 : 1"
       inkscape:persp3d-origin="372.04724 : 350.78739 : 1"
       id="perspective3522" />
    <inkscape:perspective
       id="perspective3494"
       inkscape:persp3d-origin="0.5 : 0.33333333 : 1"
       inkscape:vp_z="1 : 0.5 : 1"
       inkscape:vp_y="0 : 1000 : 0"
       inkscape:vp_x="0 : 0.5 : 1"
       sodipodi:type="inkscape:persp3d" />
    <filter
       color-interpolation-filters="sRGB"
       inkscape:collect="always"
       id="filter3473">
      <feGaussianBlur
         inkscape:collect="always"
         stdDeviation="2.95"
         id="feGaussianBlur3475" />
    </filter>
  </defs>
  <sodipodi:namedview
     id="base"
     pagecolor="#ffffff"
     bordercolor="#666666"
     borderopacity="1.0"
     inkscape:pageopacity="0.0"
     inkscape:pageshadow="2"
     inkscape:zoom="0.69589844"
     inkscape:cx="682.32031"
     inkscape:cy="71.634625"
     inkscape:document-units="px"
     inkscape:current-layer="layer1"
     showgrid="false"
     inkscape:window-width="1280"
     inkscape:window-height="706"
     inkscape:window-x="-8"
     inkscape:window-y="-8"
     inkscape:window-maximized="1" />
  <metadata
     id="metadata3519">
    <rdf:RDF>
      <cc:Work
         rdf:about="">
        <dc:format>image/svg+xml</dc:format>
        <dc:type
           rdf:resource="http://purl.org/dc/dcmitype/StillImage" />
        <dc:title>RAM memory</dc:title>
      </cc:Work>
    </rdf:RDF>
  </metadata>
  <g
     inkscape:label="Layer 1"
     inkscape:groupmode="layer"
     id="layer1"
     transform="translate(307.32031,-347.02571)">
    <g
       id="g3477"
       transform="matrix(2.4670757,0,0,2.4670757,-860.51886,-546.5517)">
      <path
         style="fill:#000000;fill-opacity:1;stroke:none;filter:url(#filter3473)"
         d="m 231.3125,369.28125 0,13.71875 c 6.14975,0.29568 11.0625,5.37117 11.0625,11.59375 0,6.22258 -4.91275,11.29808 -11.0625,11.59375 l 0,12.8125 c 6.14976,0.29568 11.0625,5.37117 11.0625,11.59375 0,6.22258 -4.91275,11.29808 -11.0625,11.59375 l 0,17.09375 246.40625,0 0,-9.90625 c 0,-2.216 1.784,-4 4,-4 2.216,0 4,1.784 4,4 l 0,9.90625 245.59375,0 0,-17.09375 c -0.18765,0.009 -0.37263,0.0312 -0.5625,0.0312 -6.41248,0 -11.59375,-5.21255 -11.59375,-11.625 -2e-5,-6.41244 5.1813,-11.625 11.59375,-11.625 0.18987,0 0.37485,0.0222 0.5625,0.0312 l 0,-12.8125 c -0.18765,0.009 -0.37263,0.0312 -0.5625,0.0312 -6.41248,0 -11.59375,-5.21255 -11.59375,-11.625 -2e-5,-6.41244 5.1813,-11.625 11.59375,-11.625 0.18987,0 0.37485,0.0222 0.5625,0.0312 l 0,-13.71875 -500,0 z"
         id="path2701" />
      <path
         id="rect2629"
         d="m 229.3125,367.28125 0,13.71875 c 6.14975,0.29568 11.0625,5.37117 11.0625,11.59375 0,6.22258 -4.91275,11.29808 -11.0625,11.59375 l 0,12.8125 c 6.14976,0.29568 11.0625,5.37117 11.0625,11.59375 0,6.22258 -4.91275,11.29808 -11.0625,11.59375 l 0,17.09375 246.40625,0 0,-9.90625 c 0,-2.216 1.784,-4 4,-4 2.216,0 4,1.784 4,4 l 0,9.90625 245.59375,0 0,-17.09375 c -0.18765,0.009 -0.37263,0.0312 -0.5625,0.0312 -6.41248,0 -11.59375,-5.21255 -11.59375,-11.625 -2e-5,-6.41244 5.1813,-11.625 11.59375,-11.625 0.18987,0 0.37485,0.0222 0.5625,0.0312 l 0,-12.8125 c -0.18765,0.009 -0.37263,0.0312 -0.5625,0.0312 -6.41248,0 -11.59375,-5.21255 -11.59375,-11.625 -2e-5,-6.41244 5.1813,-11.625 11.59375,-11.625 0.18987,0 0.37485,0.0222 0.5625,0.0312 l 0,-13.71875 -500,0 z"
         style="fill:#008000;fill-opacity:1;stroke:none" />
      <path
         id="rect2631"
         d="m 229.3125,447.28125 0,10 246.40625,0 0,-9.90625 c 0,-0.0318 -7.3e-4,-0.0622 0,-0.0937 l -236.375,0 0,9.90625 -10,0 0,-9.90625 -0.0312,0 z m 254.40625,0 c 7.2e-4,0.0314 0,0.0622 0,0.0937 l 0,9.90625 245.59375,0 0,-0.0937 -10,0 0,-9.90625 -235.59375,0 z"
         style="opacity:0.8;fill:#ffcc00;fill-opacity:1;stroke:none" />
      <g
         transform="translate(4,0)"
         id="g2683">
        <rect
           style="fill:#000000;fill-opacity:1;stroke:none"
           id="rect2633"
           width="50"
           height="50"
           x="246.47723"
           y="383.72241" />
        <rect
           y="383.72241"
           x="301.81058"
           height="50"
           width="50"
           id="rect2635"
           style="fill:#000000;fill-opacity:1;stroke:none" />
        <rect
           style="fill:#000000;fill-opacity:1;stroke:none"
           id="rect2637"
           width="50"
           height="50"
           x="357.14392"
           y="383.72241" />
        <rect
           y="383.72241"
           x="412.47726"
           height="50"
           width="50"
           id="rect2639"
           style="fill:#000000;fill-opacity:1;stroke:none" />
      </g>
      <g
         transform="translate(-4,0)"
         id="g2677">
        <rect
           y="383.72241"
           x="496.00522"
           height="50"
           width="50"
           id="rect2649"
           style="fill:#000000;fill-opacity:1;stroke:none" />
        <rect
           style="fill:#000000;fill-opacity:1;stroke:none"
           id="rect2651"
           width="50"
           height="50"
           x="551.33862"
           y="383.72241" />
        <rect
           y="383.72241"
           x="606.672"
           height="50"
           width="50"
           id="rect2653"
           style="fill:#000000;fill-opacity:1;stroke:none" />
        <rect
           style="fill:#000000;fill-opacity:1;stroke:none"
           id="rect2655"
           width="50"
           height="50"
           x="662.00537"
           y="383.72241" />
      </g>
    </g>
  </g>
</svg>
